<svg id="Layer_1" enable-background="new 0 0 505.203 505.203" height="512" viewBox="0 0 505.203 505.203" width="512" xmlns="http://www.w3.org/2000/svg"><path d="m489.203 99.694h-423.866c-8.836 0-16 7.164-16 16v221.395c0 8.836 7.164 16 16 16h423.866c8.837 0 16-7.164 16-16v-221.395c0-8.837-7.163-16-16-16z" fill="#8bc4ff"/><path d="m439.865 152.114h-423.865c-8.836 0-16 7.164-16 16v221.395c0 8.836 7.164 16 16 16h423.865c8.837 0 16-7.164 16-16v-221.395c0-8.836-7.163-16-16-16z" fill="#a2d0f9"/><path d="m439.865 152.114h-423.865c-8.836 0-16 7.164-16 16v141.353c61.964 12.132 142.274 13.276 227.933-23.664 98.087-42.301 175.962-45.983 227.933-39.888v-77.801c-.001-8.836-7.164-16-16.001-16z" fill="#b4dcf9"/><g fill="#80b9ed"><path d="m187.336 238.215c-22.436 22.437-22.439 58.753 0 81.192 22.436 22.436 58.753 22.441 81.192 0 22.385-22.385 22.385-58.807 0-81.192-22.384-22.384-58.807-22.385-81.192 0z"/><path d="m97.014 152.114h-81.014c-8.836 0-16 7.164-16 16v81.015c0 8.836 7.164 16 16 16 53.494 0 97.014-43.521 97.014-97.015 0-8.836-7.163-16-16-16z"/><path d="m439.865 152.114h-81.015c-8.837 0-16 7.164-16 16 0 53.494 43.521 97.015 97.015 97.015 8.837 0 16-7.164 16-16v-81.015c0-8.836-7.163-16-16-16z"/><path d="m439.865 292.494c-53.494 0-97.015 43.521-97.015 97.015 0 8.836 7.163 16 16 16h81.015c8.837 0 16-7.164 16-16v-81.015c0-8.836-7.163-16-16-16z"/><path d="m16 292.494c-8.836 0-16 7.164-16 16v81.015c0 8.836 7.164 16 16 16h81.014c8.836 0 16-7.164 16-16 0-53.494-43.52-97.015-97.014-97.015z"/></g><path d="m489.203 99.694h-423.866c-8.836 0-16 7.164-16 16v36.42h-33.337c-8.836 0-16 7.164-16 16v221.395c0 8.836 7.164 16 16 16h423.866c8.837 0 16-7.164 16-16v-36.42h33.337c8.837 0 16-7.164 16-16v-221.395c0-8.837-7.163-16-16-16zm-145.025 84.42c6.783 40.7 38.988 72.905 79.688 79.688v30.019c-40.7 6.783-72.905 38.988-79.688 79.688h-232.49c-6.783-40.7-38.988-72.905-79.687-79.688v-30.02c40.699-6.783 72.904-38.988 79.687-79.688h232.49zm79.688 47.023c-23.02-5.846-41.177-24.003-47.022-47.023h47.022zm-391.866-47.023h47.022c-5.846 23.02-24.002 41.177-47.022 47.023zm0 189.395v-47.023c23.02 5.846 41.176 24.003 47.022 47.023zm391.866 0h-47.022c5.846-23.02 24.003-41.177 47.022-47.023zm49.337-52.42h-17.337c0-81.241 0 2.145 0-152.975 0-8.836-7.163-16-16-16-37.57 0-324.631 0-358.529 0v-20.42h391.866z" fill="#2e58ff"/><path d="m227.932 336.196c31.613 0 57.412-25.524 57.412-57.384 0-31.727-25.678-57.412-57.412-57.412-31.728 0-57.411 25.678-57.411 57.412 0 31.867 25.804 57.384 57.411 57.384zm-17.968-75.353c9.931-9.931 26.004-9.932 35.937 0 9.932 9.931 9.933 26.005 0 35.937-9.908 9.907-26.029 9.907-35.937 0-9.931-9.931-9.932-26.004 0-35.937z" fill="#2e58ff"/></svg>